# FaceFall demo asset: extruded 5-point star
o star
v 1 0 0
v 0.364058 0 0.264503
v 0.309017 0 0.951057
v -0.139058 0 0.427975
v -0.809017 0 0.587785
v -0.45 0 0
v -0.809017 0 -0.587785
v -0.139058 0 -0.427975
v 0.309017 0 -0.951057
v 0.364058 0 -0.264503
v 1 0.9 0
v 0.364058 0.9 0.264503
v 0.309017 0.9 0.951057
v -0.139058 0.9 0.427975
v -0.809017 0.9 0.587785
v -0.45 0.9 0
v -0.809017 0.9 -0.587785
v -0.139058 0.9 -0.427975
v 0.309017 0.9 -0.951057
v 0.364058 0.9 -0.264503
v 0 0 0
v 0 0.9 0
f 1 11 12
f 1 12 2
f 21 2 1
f 22 11 12
f 2 12 13
f 2 13 3
f 21 3 2
f 22 12 13
f 3 13 14
f 3 14 4
f 21 4 3
f 22 13 14
f 4 14 15
f 4 15 5
f 21 5 4
f 22 14 15
f 5 15 16
f 5 16 6
f 21 6 5
f 22 15 16
f 6 16 17
f 6 17 7
f 21 7 6
f 22 16 17
f 7 17 18
f 7 18 8
f 21 8 7
f 22 17 18
f 8 18 19
f 8 19 9
f 21 9 8
f 22 18 19
f 9 19 20
f 9 20 10
f 21 10 9
f 22 19 20
f 10 20 11
f 10 11 1
f 21 1 10
f 22 20 11
